<?xml version="1.0" encoding="utf-8"?>
<!-- Generator: Adobe Illustrator 18.1.1, SVG Export Plug-In . SVG Version: 6.00 Build 0)  -->
<svg version="1.1" id="Layer_1" xmlns="http://www.w3.org/2000/svg" xmlns:xlink="http://www.w3.org/1999/xlink" x="0px" y="0px"
	 viewBox="0 0 12 11" enable-background="new 0 0 12 11" xml:space="preserve">
<path d="M0.2,5c0,0-0.1,0.1-0.1,0.1c0,0,0,0,0,0.1c0,0,0,0,0,0.1c0,0,0,0,0,0.1c0,0,0,0,0,0.1c0,0,0,0.1,0,0.1c0,0,0,0.1,0,0.1
	c0,0,0,0,0,0.1c0,0,0,0,0,0.1c0,0,0,0,0,0.1c0,0,0,0,0,0.1c0,0,0.1,0.1,0.1,0.1l4.5,4.8c0.3,0.3,0.7,0.3,0.9,0c0.3-0.3,0.3-0.7,0-1
	L2.2,6.2h9.1c0.4,0,0.6-0.3,0.6-0.7c0-0.4-0.3-0.7-0.6-0.7H2.2l3.4-3.6c0.3-0.3,0.3-0.7,0-1C5.4-0.1,5-0.1,4.7,0.2L0.2,5z"/>
</svg>
