<?xml version="1.0" encoding="utf-8"?>
<!-- Generator: Adobe Illustrator 18.1.1, SVG Export Plug-In . SVG Version: 6.00 Build 0)  -->
<svg version="1.1" id="Layer_1" xmlns="http://www.w3.org/2000/svg" xmlns:xlink="http://www.w3.org/1999/xlink" x="0px" y="0px"
	 viewBox="0 0 15.2 12.8" enable-background="new 0 0 15.2 12.8" xml:space="preserve">
<path fill="#FFFFFF" d="M15.1,6.7c0,0,0.1-0.1,0.1-0.1c0-0.1,0-0.1,0-0.2c0-0.1,0-0.1,0-0.2c0-0.1-0.1-0.1-0.1-0.1l-5.9-6
	C9,0,8.8,0,8.6,0.1c-0.2,0.2-0.2,0.4,0,0.6L13.8,6H0.4C0.2,6,0,6.2,0,6.4c0,0.2,0.2,0.4,0.4,0.4h13.4l-5.2,5.2
	c-0.2,0.2-0.2,0.4,0,0.6c0.2,0.2,0.4,0.2,0.6,0L15.1,6.7z"/>
</svg>
