<?xml version="1.0" standalone="no"?><!DOCTYPE svg PUBLIC "-//W3C//DTD SVG 1.1//EN" "http://www.w3.org/Graphics/SVG/1.1/DTD/svg11.dtd"><svg t="1694584794173" class="icon" viewBox="0 0 1024 1024" version="1.1" xmlns="http://www.w3.org/2000/svg" p-id="4847" xmlns:xlink="http://www.w3.org/1999/xlink" width="48" height="48"><path d="M512 512m-448 0a448 448 0 1 0 896 0 448 448 0 1 0-896 0Z" fill="#DE912F" p-id="4848" data-spm-anchor-id="a313x.search_index.0.i7.a1643a81iF5W7e" class="selected"></path><path d="M512 620c-17.7 0-32-14.3-32-32V300c0-17.7 14.3-32 32-32s32 14.3 32 32v288c0 17.7-14.3 32-32 32z" fill="#FFFFFF" p-id="4849" data-spm-anchor-id="a313x.search_index.0.i8.a1643a81iF5W7e" class=""></path><path d="M512 718m-38 0a38 38 0 1 0 76 0 38 38 0 1 0-76 0Z" fill="#FFFFFF" p-id="4850"></path></svg>